<svg width="403" height="409" viewBox="0 0 403 409" fill="none" xmlns="http://www.w3.org/2000/svg">
<rect width="403" height="409" rx="201.5" fill="white"/>
<path d="M90.75 294C84.9167 294 82 290.875 82 284.625V124.125C82 117.875 84.9167 114.75 90.75 114.75H109.75C115.583 114.75 118.5 117.875 118.5 124.125V185.25H185.75V124.125C185.75 117.875 188.667 114.75 194.5 114.75H213.5C219.333 114.75 222.25 117.875 222.25 124.125V284.625C222.25 290.875 219.333 294 213.5 294H194.5C188.667 294 185.75 290.875 185.75 284.625V216.25H118.5V284.625C118.5 290.875 115.583 294 109.75 294H90.75Z" fill="black"/>
<path d="M250.625 151.75C248.458 147.667 249.917 144.5 255 142.25C259.833 140.083 264.875 137.042 270.125 133.125C275.375 129.208 279.667 125.167 283 121C286.75 116.333 290.333 114 293.75 114H313.625C318.625 114 321.125 116.5 321.125 121.5V286.5C321.125 291.5 318.625 294 313.625 294H293.625C288.625 294 286.125 291.5 286.125 286.5V167.625C286.125 164.292 286.292 160.958 286.625 157.625H286.125C283.542 160.875 280.708 163.667 277.625 166C274.542 168.333 271.417 170.167 268.25 171.5C264.333 173.167 261.375 172.083 259.375 168.25L250.625 151.75Z" fill="black"/>
</svg>
