<svg width="403" height="409" viewBox="0 0 403 409" fill="none" xmlns="http://www.w3.org/2000/svg">
<rect width="403" height="409" rx="86" fill="white"/>
<path d="M47.75 288C41.9167 288 39 284.875 39 278.625V118.125C39 111.875 41.9167 108.75 47.75 108.75H66.75C72.5833 108.75 75.5 111.875 75.5 118.125V179.25H142.75V118.125C142.75 111.875 145.667 108.75 151.5 108.75H170.5C176.333 108.75 179.25 111.875 179.25 118.125V278.625C179.25 284.875 176.333 288 170.5 288H151.5C145.667 288 142.75 284.875 142.75 278.625V210.25H75.5V278.625C75.5 284.875 72.5833 288 66.75 288H47.75Z" fill="black"/>
<path d="M265.625 145.75C263.458 141.667 264.917 138.5 270 136.25C274.833 134.083 279.875 131.042 285.125 127.125C290.375 123.208 294.667 119.167 298 115C301.75 110.333 305.333 108 308.75 108H328.625C333.625 108 336.125 110.5 336.125 115.5V280.5C336.125 285.5 333.625 288 328.625 288H308.625C303.625 288 301.125 285.5 301.125 280.5V161.625C301.125 158.292 301.292 154.958 301.625 151.625H301.125C298.542 154.875 295.708 157.667 292.625 160C289.542 162.333 286.417 164.167 283.25 165.5C279.333 167.167 276.375 166.083 274.375 162.25L265.625 145.75Z" fill="black"/>
</svg>
